<?xml version="1.0" standalone="no"?>
<!DOCTYPE svg PUBLIC "-//W3C//DTD SVG 20010904//EN"
 "http://www.w3.org/TR/2001/REC-SVG-20010904/DTD/svg10.dtd">
<svg version="1.0" xmlns="http://www.w3.org/2000/svg"
 width="920.000000pt" height="920.000000pt" viewBox="0 0 920.000000 920.000000"
 preserveAspectRatio="xMidYMid meet">

<g transform="translate(0.000000,920.000000) scale(0.100000,-0.100000)"
fill="#000000" stroke="none">
<path d="M2430 6949 c-75 -30 -150 -107 -179 -184 -30 -78 -26 -187 8 -255 16
-32 288 -311 954 -977 l932 -933 -932 -933 c-666 -666 -938 -945 -954 -977
-34 -68 -38 -177 -8 -255 30 -80 104 -154 184 -184 78 -30 187 -26 255 8 32
16 311 288 978 954 l932 932 933 -932 c666 -666 945 -938 977 -954 68 -34 177
-38 255 -8 80 30 154 104 184 184 30 78 26 187 -8 255 -16 32 -288 311 -954
978 l-932 932 932 933 c666 666 938 945 954 977 34 68 38 177 8 255 -30 80
-104 154 -184 184 -78 30 -187 26 -255 -8 -32 -16 -311 -288 -978 -954 l-932
-932 -933 932 c-666 665 -945 938 -977 954 -66 33 -186 37 -260 8z"/>
</g>
</svg>
