<?xml version="1.0" standalone="no"?>
<!DOCTYPE svg PUBLIC "-//W3C//DTD SVG 20010904//EN"
 "http://www.w3.org/TR/2001/REC-SVG-20010904/DTD/svg10.dtd">
<svg version="1.0" xmlns="http://www.w3.org/2000/svg"
 width="512.000000pt" height="512.000000pt" viewBox="0 0 512.000000 512.000000"
 preserveAspectRatio="xMidYMid meet">

<g transform="translate(0.000000,512.000000) scale(0.100000,-0.100000)"
fill="#000000" stroke="none">
<path d="M1916 4850 c-953 -120 -1656 -910 -1656 -1860 0 -804 521 -1525 1280
-1774 471 -154 953 -123 1398 90 113 53 265 148 352 217 l45 37 640 -640 c441
-440 649 -641 668 -646 44 -10 112 1 145 24 54 39 80 138 51 195 -6 12 -296
308 -645 657 l-634 635 37 45 c68 85 155 225 214 345 496 1012 -23 2237 -1097
2591 -195 64 -323 85 -544 89 -102 2 -216 0 -254 -5z m532 -349 c205 -45 412
-136 579 -254 106 -75 270 -235 346 -337 457 -620 395 -1472 -148 -2015 -55
-55 -128 -120 -163 -145 -306 -220 -646 -324 -1002 -306 -228 11 -401 57 -615
161 -419 206 -722 597 -826 1067 -14 65 -22 146 -26 268 -5 149 -2 193 16 299
111 653 607 1152 1260 1271 144 27 440 22 579 -9z"/>
</g>
</svg>
