<?xml version="1.0" standalone="no"?>
<!DOCTYPE svg PUBLIC "-//W3C//DTD SVG 20010904//EN"
 "http://www.w3.org/TR/2001/REC-SVG-20010904/DTD/svg10.dtd">
<svg version="1.0" xmlns="http://www.w3.org/2000/svg"
 width="512.000000pt" height="512.000000pt" viewBox="0 0 512.000000 512.000000"
 preserveAspectRatio="xMidYMid meet">

<g transform="translate(0.000000,512.000000) scale(0.100000,-0.100000)"
fill="#000000" stroke="none">
<path d="M2365 4414 c-371 -52 -651 -163 -925 -364 -114 -84 -320 -293 -402
-410 -85 -120 -188 -318 -238 -458 -287 -807 7 -1703 715 -2177 536 -359 1197
-421 1785 -168 211 91 418 231 580 393 453 454 643 1104 504 1729 -34 153 -73
260 -149 416 -199 407 -529 721 -941 896 -246 105 -413 139 -694 144 -113 2
-218 1 -235 -1z m526 -162 c352 -73 650 -234 896 -484 110 -111 136 -144 220
-270 419 -635 366 -1473 -130 -2065 -74 -88 -171 -183 -187 -183 -4 0 -10 42
-13 93 -11 171 -69 339 -170 490 -130 195 -311 332 -551 420 -15 6 -5 17 55
60 86 62 173 161 222 255 104 199 115 441 30 647 -71 170 -233 334 -401 406
-177 76 -412 78 -592 5 -132 -54 -275 -174 -355 -300 -211 -330 -124 -786 194
-1013 60 -43 70 -54 55 -60 -95 -34 -188 -81 -261 -129 -262 -174 -441 -477
-460 -777 -3 -53 -9 -97 -12 -97 -16 0 -117 99 -187 183 -392 467 -515 1085
-328 1656 123 375 376 704 707 918 184 118 397 204 607 243 156 29 150 28 365
25 150 -3 224 -8 296 -23z m-129 -745 c100 -36 172 -84 246 -162 113 -119 172
-265 172 -425 0 -166 -63 -316 -185 -436 -159 -158 -390 -218 -605 -158 -145
41 -300 163 -373 294 -105 190 -102 428 8 616 64 109 195 220 314 265 88 33
128 38 246 35 86 -3 125 -9 177 -29z m24 -1358 c313 -55 577 -268 693 -559 43
-109 61 -212 61 -347 l0 -118 -77 -47 c-557 -338 -1245 -338 -1805 -1 l-78 47
0 125 c0 142 20 245 69 361 116 273 365 474 661 535 80 16 393 19 476 4z"/>
</g>
</svg>
