<?xml version="1.0" standalone="no"?>
<!DOCTYPE svg PUBLIC "-//W3C//DTD SVG 20010904//EN"
 "http://www.w3.org/TR/2001/REC-SVG-20010904/DTD/svg10.dtd">
<svg version="1.0" xmlns="http://www.w3.org/2000/svg"
 width="266.000000pt" height="131.000000pt" viewBox="0 0 266.000000 131.000000"
 preserveAspectRatio="xMidYMid meet">

<g transform="translate(0.000000,131.000000) scale(0.100000,-0.100000)"
fill="#000000" stroke="none">
<path d="M566 1105 c4 -9 19 -15 39 -15 18 0 38 7 45 15 11 13 6 15 -38 15
-42 0 -50 -3 -46 -15z"/>
<path d="M610 1069 l-35 -5 59 -27 c42 -20 75 -27 118 -27 57 0 62 -2 129 -56
38 -31 69 -60 69 -64 0 -5 -44 -23 -97 -40 -54 -18 -105 -39 -114 -46 -11 -10
-43 -14 -101 -14 -60 0 -88 -4 -91 -12 -3 -10 -7 -10 -20 0 -13 11 -16 10 -19
-4 -3 -17 -115 -64 -155 -64 -13 0 -23 -6 -23 -14 0 -8 -9 -17 -19 -21 -43
-13 -71 -46 -71 -81 l0 -34 -64 0 c-67 0 -86 -10 -66 -35 9 -10 33 -15 76 -15
61 0 64 -1 70 -27 22 -97 35 -137 49 -153 11 -12 14 -26 10 -39 -5 -17 -2 -21
17 -21 13 0 32 7 42 15 27 20 66 19 66 -1 0 -14 3 -14 15 -4 10 9 15 9 15 1 0
-19 15 -12 27 14 6 14 7 25 2 25 -5 0 -9 5 -9 10 0 7 229 10 668 10 369 0 709
5 761 10 142 15 219 42 334 116 79 52 357 272 357 284 0 36 -111 55 -645 111
-110 11 -238 23 -285 26 -93 5 -264 54 -273 78 -6 14 -44 21 -322 60 -194 27
-248 30 -310 15 -42 -10 -122 6 -127 24 -2 7 -17 9 -38 5z m843 -149 c48 -17
87 -35 87 -40 0 -8 -32 -12 -238 -35 -140 -15 -146 -14 -203 21 -35 22 -36 22
-77 4 -22 -10 -58 -30 -79 -44 -29 -20 -50 -26 -92 -26 -34 0 -51 4 -45 9 19
19 229 92 332 116 59 13 116 26 127 29 39 9 101 -2 188 -34z m727 -228 c0 -28
-84 -40 -487 -67 -236 -15 -276 -12 -289 27 -3 11 -4 21 -2 23 14 14 778 31
778 17z m-1740 -362 c0 -5 -4 -10 -10 -10 -5 0 -10 5 -10 10 0 6 5 10 10 10 6
0 10 -4 10 -10z"/>
</g>
</svg>
