<?xml version="1.0" standalone="no"?>
<!DOCTYPE svg PUBLIC "-//W3C//DTD SVG 20010904//EN"
 "http://www.w3.org/TR/2001/REC-SVG-20010904/DTD/svg10.dtd">
<svg version="1.0" xmlns="http://www.w3.org/2000/svg"
 width="270.000000pt" height="83.000000pt" viewBox="0 0 270.000000 83.000000"
 preserveAspectRatio="xMidYMid meet">

<g transform="translate(0.000000,83.000000) scale(0.100000,-0.100000)"
fill="#000000" stroke="none">
<path d="M680 767 c0 -19 34 -64 66 -86 38 -26 45 -51 14 -51 -11 0 -20 -3
-20 -7 1 -12 71 -63 87 -63 24 0 14 -17 -31 -54 -30 -24 -55 -36 -75 -36 -17
0 -31 -4 -31 -8 0 -4 -42 -14 -92 -21 -51 -8 -103 -20 -115 -27 -12 -8 -31
-14 -42 -14 -11 0 -22 -4 -25 -8 -3 -5 47 -12 111 -16 64 -3 119 -8 121 -11 3
-2 -7 -20 -22 -40 l-27 -35 -103 0 -102 0 -34 -35 c-31 -32 -38 -34 -103 -37
l-71 -3 -27 -45 c-15 -25 -28 -48 -28 -52 -1 -5 70 -8 157 -8 86 0 342 -5 567
-10 805 -20 1489 -28 1510 -17 19 10 188 142 229 180 11 9 25 17 30 18 35 2
-41 17 -85 17 -257 -1 -277 1 -282 25 l-4 22 -2 -22 c-1 -21 -6 -23 -54 -23
-36 0 -60 6 -73 18 -26 22 -53 39 -81 52 -39 16 -270 60 -382 72 -62 6 -121
19 -143 30 -21 10 -54 18 -76 18 -21 0 -44 6 -51 13 -11 10 -13 10 -7 0 4 -8
2 -13 -6 -13 -18 0 -111 60 -104 67 3 3 17 -2 32 -12 15 -9 24 -12 20 -7 -12
20 10 21 52 2 24 -11 40 -15 36 -9 -12 20 -69 37 -149 45 -44 4 -89 8 -100 10
-11 1 -23 3 -27 3 -4 1 -14 8 -22 17 -9 8 -16 12 -16 7 0 -4 -44 -7 -97 -6
l-98 2 4 28 c1 15 5 31 8 36 7 11 30 8 45 -6 18 -18 48 -29 48 -17 0 15 113
10 132 -7 15 -14 16 -13 11 7 -8 32 -61 50 -147 50 -56 0 -75 4 -80 15 -7 20
-53 19 -64 0 -11 -20 -43 -9 -40 13 4 22 -40 44 -64 31 -10 -5 -18 -16 -18
-24 0 -8 -7 -15 -15 -15 -8 0 -15 4 -15 8 0 11 -29 49 -30 39z m184 -107 c19
-7 26 -17 26 -35 0 -23 -3 -25 -22 -19 -13 4 -32 8 -43 9 -14 1 -21 10 -23 28
-4 30 15 35 62 17z m231 -110 c3 -5 3 -21 -1 -35 -6 -24 -9 -25 -80 -25 -81 0
-92 10 -42 36 60 31 112 42 123 24z m90 -25 c0 -27 -3 -30 -37 -33 -38 -3 -38
-3 -38 33 0 36 0 36 38 33 34 -3 37 -6 37 -33z m90 8 c25 -16 45 -31 45 -36 0
-4 -26 -7 -57 -5 -59 3 -74 16 -59 54 8 20 19 18 71 -13z m-415 -192 l0 -39
-80 -4 c-44 -2 -80 0 -80 4 0 14 116 78 143 78 13 0 17 -9 17 -39z m88 -3 c3
-29 -1 -38 -17 -43 -41 -13 -61 3 -61 46 l0 40 38 -3 c35 -3 37 -5 40 -40z
m130 1 l-3 -41 -55 -1 -55 -1 -3 42 -3 42 61 0 61 0 -3 -41z m92 2 c0 -33 -4
-40 -25 -45 -36 -9 -45 0 -45 45 0 38 1 39 35 39 34 0 35 -1 35 -39z m135 3
c-67 -60 -125 -69 -125 -19 0 51 7 55 89 55 l76 -1 -40 -35z m299 26 c33 0 36
-4 27 -52 -1 -11 -161 -9 -186 2 -17 7 -14 10 25 27 68 30 74 32 88 27 8 -2
28 -4 46 -4z m136 -30 c0 -29 -2 -30 -45 -30 -43 0 -45 1 -45 30 0 29 2 30 45
30 43 0 45 -1 45 -30z m142 2 c42 -19 49 -32 18 -32 -12 0 -20 7 -21 18 -1 16
-2 16 -6 0 -4 -14 -15 -18 -59 -18 -50 0 -54 2 -54 23 0 13 3 27 7 31 11 10
71 -1 115 -22z m-482 -6 c0 -8 -5 -18 -11 -22 -14 -8 -33 11 -25 25 10 16 36
13 36 -3z m-322 -159 c2 -11 -3 -17 -17 -17 -25 0 -38 19 -20 31 19 12 33 6
37 -14z m550 6 c2 -8 -6 -13 -22 -13 -26 0 -40 12 -29 24 11 11 46 2 51 -11z
m66 11 c22 -9 10 -24 -20 -24 -23 0 -31 10 -17 23 8 9 17 9 37 1z m-759 -13
c7 -12 -31 -25 -45 -16 -5 3 -10 10 -10 16 0 12 47 12 55 0z m75 -1 c0 -6 -7
-13 -15 -16 -20 -8 -48 3 -40 16 8 13 55 13 55 0z m280 0 c0 -6 -7 -13 -15
-16 -20 -8 -48 3 -40 16 8 13 55 13 55 0z"/>
<path d="M2335 331 c-3 -5 -1 -12 5 -16 5 -3 10 1 10 9 0 18 -6 21 -15 7z"/>
<path d="M2471 336 c7 -8 139 -10 146 -3 3 4 -29 7 -72 7 -43 0 -76 -2 -74 -4z"/>
</g>
</svg>
